<?xml version="1.0" standalone="no"?>
<svg
  width="600"
  height="600"
  viewBox="0 0 600 600"
  xmlns="http://www.w3.org/2000/svg"
>
  <g transform="translate(300,300)">
    <path d="M150.6,-178.3C186.4,-149.5,200.5,-93.7,203.4,-41.2C206.3,11.3,198,60.4,175.8,104C153.6,147.5,117.5,185.6,71.1,207.9C24.7,230.2,-31.9,236.8,-86.8,223.4C-141.6,209.9,-194.6,176.5,-220.6,128.7C-246.5,81,-245.4,19,-226.2,-31.2C-207,-81.3,-169.7,-119.6,-129,-147.5C-88.3,-175.5,-44.1,-193.3,6.6,-201.2C57.4,-209.1,114.8,-207.2,150.6,-178.3Z" fill="#0db0ea" />
  </g>
</svg>
  